<?xml version="1.0" encoding="UTF-8" standalone="no"?>
<svg
   xmlns:dc="http://purl.org/dc/elements/1.1/"
   xmlns:cc="http://creativecommons.org/ns#"
   xmlns:rdf="http://www.w3.org/1999/02/22-rdf-syntax-ns#"
   xmlns:svg="http://www.w3.org/2000/svg"
   xmlns="http://www.w3.org/2000/svg"
   xmlns:sodipodi="http://sodipodi.sourceforge.net/DTD/sodipodi-0.dtd"
   xmlns:inkscape="http://www.inkscape.org/namespaces/inkscape"
   id="svg4588"
   height="32"
   width="32"
   version="1.1"
   inkscape:version="0.92.4 (5da689c313, 2019-01-14)"
   sodipodi:docname="panel_iconi.svg"
   inkscape:export-filename="C:\plugins - wxWidgets 3.1.2 - 5.0.0\EarthExplorer_pi\data\earthexplorer_panel_icon.png"
   inkscape:export-xdpi="96"
   inkscape:export-ydpi="96">
  <sodipodi:namedview
     pagecolor="#ffffff"
     bordercolor="#666666"
     borderopacity="1"
     objecttolerance="10"
     gridtolerance="10"
     guidetolerance="10"
     inkscape:pageopacity="0"
     inkscape:pageshadow="2"
     inkscape:window-width="1920"
     inkscape:window-height="1017"
     id="namedview4213"
     showgrid="false"
     inkscape:zoom="17.15625"
     inkscape:cx="15.708561"
     inkscape:cy="14.56193"
     inkscape:window-x="-8"
     inkscape:window-y="-8"
     inkscape:window-maximized="1"
     inkscape:current-layer="svg4588" />
  <defs
     id="defs4590">
    <inkscape:path-effect
       effect="bspline"
       id="path-effect1148"
       is_visible="true"
       weight="33.333333"
       steps="2"
       helper_size="0"
       apply_no_weight="true"
       apply_with_weight="true"
       only_selected="false" />
    <inkscape:path-effect
       effect="bspline"
       id="path-effect1144"
       is_visible="true"
       weight="33.333333"
       steps="2"
       helper_size="0"
       apply_no_weight="true"
       apply_with_weight="true"
       only_selected="false" />
    <inkscape:path-effect
       effect="bspline"
       id="path-effect1140"
       is_visible="true"
       weight="33.333333"
       steps="2"
       helper_size="0"
       apply_no_weight="true"
       apply_with_weight="true"
       only_selected="false" />
    <inkscape:path-effect
       effect="bspline"
       id="path-effect1136"
       is_visible="true"
       weight="33.333333"
       steps="2"
       helper_size="0"
       apply_no_weight="true"
       apply_with_weight="true"
       only_selected="false" />
    <inkscape:path-effect
       effect="bspline"
       id="path-effect1132"
       is_visible="true"
       weight="33.333333"
       steps="2"
       helper_size="0"
       apply_no_weight="true"
       apply_with_weight="true"
       only_selected="false" />
    <inkscape:path-effect
       effect="bspline"
       id="path-effect1128"
       is_visible="true"
       weight="33.333333"
       steps="2"
       helper_size="0"
       apply_no_weight="true"
       apply_with_weight="true"
       only_selected="false" />
    <inkscape:path-effect
       effect="bspline"
       id="path-effect1124"
       is_visible="true"
       weight="33.333333"
       steps="2"
       helper_size="0"
       apply_no_weight="true"
       apply_with_weight="true"
       only_selected="false" />
    <inkscape:path-effect
       effect="bspline"
       id="path-effect1120"
       is_visible="true"
       weight="33.333333"
       steps="2"
       helper_size="0"
       apply_no_weight="true"
       apply_with_weight="true"
       only_selected="false" />
    <inkscape:path-effect
       effect="bspline"
       id="path-effect1116"
       is_visible="true"
       weight="33.333333"
       steps="2"
       helper_size="0"
       apply_no_weight="true"
       apply_with_weight="true"
       only_selected="false" />
    <inkscape:path-effect
       effect="bspline"
       id="path-effect1112"
       is_visible="true"
       weight="33.333333"
       steps="2"
       helper_size="0"
       apply_no_weight="true"
       apply_with_weight="true"
       only_selected="false" />
    <inkscape:path-effect
       effect="bspline"
       id="path-effect1108"
       is_visible="true"
       weight="33.333333"
       steps="2"
       helper_size="0"
       apply_no_weight="true"
       apply_with_weight="true"
       only_selected="false" />
    <inkscape:path-effect
       effect="bspline"
       id="path-effect1104"
       is_visible="true"
       weight="33.333333"
       steps="2"
       helper_size="0"
       apply_no_weight="true"
       apply_with_weight="true"
       only_selected="false" />
    <inkscape:path-effect
       effect="bspline"
       id="path-effect1100"
       is_visible="true"
       weight="33.333333"
       steps="2"
       helper_size="0"
       apply_no_weight="true"
       apply_with_weight="true"
       only_selected="false" />
    <inkscape:path-effect
       effect="bspline"
       id="path-effect1096"
       is_visible="true"
       weight="33.333333"
       steps="2"
       helper_size="0"
       apply_no_weight="true"
       apply_with_weight="true"
       only_selected="false" />
    <linearGradient
       id="E"
       x1="73.009"
       gradientUnits="userSpaceOnUse"
       x2="73.009"
       gradientTransform="matrix(1.0329,0,0,1.0329,-59.414,-1122.2)"
       y1="1086.4"
       y2="1055.4">
      <stop
         id="stop4324"
         stop-color="#fff"
         offset="0" />
      <stop
         id="stop4326"
         stop-color="#939393"
         offset="1" />
    </linearGradient>
    <linearGradient
       id="F"
       x1="73.009"
       gradientUnits="userSpaceOnUse"
       x2="73.009"
       gradientTransform="matrix(1.0329,0,0,1.0329,-59.414,-1090.2)"
       y1="1086.4"
       y2="1070.9">
      <stop
         id="stop3297-5-3-1-9-9"
         stop-color="#fff"
         offset="0" />
      <stop
         id="stop4354-4-5-0-3"
         stop-color="#fff"
         stop-opacity="0"
         offset="1" />
    </linearGradient>
    <inkscape:path-effect
       effect="bspline"
       id="path-effect1148-8"
       is_visible="true"
       weight="33.333333"
       steps="2"
       helper_size="0"
       apply_no_weight="true"
       apply_with_weight="true"
       only_selected="false" />
  </defs>
  <metadata
     id="metadata4593">
    <rdf:RDF>
      <cc:Work
         rdf:about="">
        <dc:format>image/svg+xml</dc:format>
        <dc:type
           rdf:resource="http://purl.org/dc/dcmitype/StillImage" />
        <dc:title></dc:title>
      </cc:Work>
    </rdf:RDF>
  </metadata>
  <path
     style="opacity:0;fill:#b4b4b4;fill-opacity:1;fill-rule:nonzero;stroke:none;stroke-width:0;stroke-linecap:square;stroke-miterlimit:4;stroke-dasharray:none;stroke-dashoffset:0;stroke-opacity:1;paint-order:fill markers stroke"
     d="m 46.240569,28.958166 c -2.307106,-0.293863 -4.471543,-1.056085 -6.21576,-2.188926 -3.531163,-2.293434 -5.784075,-5.893528 -6.322527,-10.10323 -0.09623,-0.752349 -0.09696,-2.698384 -0.0013,-3.409836 0.714346,-5.3114734 4.327894,-9.7500004 9.340818,-11.4733418 2.872551,-0.98752451 6.23899,-1.00842019 8.940091,-0.055492 1.072433,0.3783467 2.408408,1.0159451 3.196769,1.5256691 1.103209,0.7132922 2.570282,2.039459 3.360538,3.0377723 2.301131,2.9069675 3.374442,6.6825054 2.944519,10.3578034 -0.42105,3.599449 -2.281611,6.959321 -5.130739,9.265284 -1.868447,1.512241 -4.387753,2.606284 -6.819175,2.96132 -0.433673,0.06333 -2.949822,0.126722 -3.29326,0.08298 z m -0.39982,-4.015289 c -0.121151,-3.819426 -2.30366,-7.570901 -5.291517,-9.095489 -0.901901,-0.460206 -2.216856,-0.825996 -3.080977,-0.857058 l -0.408014,-0.01467 -0.01902,0.320583 c -0.04392,0.74013 0.240039,2.264079 0.602769,3.234972 1.266735,3.390573 3.885719,5.767875 7.381693,6.700505 0.299518,0.0799 0.608351,0.139404 0.686295,0.132223 0.136741,-0.0126 0.141261,-0.02738 0.128774,-0.42107 z m 4.376985,0.266304 c 3.584165,-0.924138 6.495532,-3.733441 7.512489,-7.249123 0.09087,-0.314139 0.206076,-0.789219 0.256017,-1.055735 0.107389,-0.573096 0.196022,-1.89715 0.12974,-1.938115 -0.06317,-0.03904 -0.726256,0.02783 -1.315952,0.132716 -2.219732,0.394812 -4.3283,1.910602 -5.709295,4.10425 -0.335776,0.533366 -0.902084,1.734908 -1.115265,2.366273 -0.333237,0.986929 -0.645646,2.677082 -0.645646,3.492991 0,0.385836 -0.024,0.381869 0.887912,0.146743 z m -2.206817,-8.485398 c 0.841623,-0.219214 1.325215,-0.843042 1.335165,-1.722345 0.0059,-0.521715 -0.123566,-0.843791 -0.491664,-1.22309 -1.116389,-1.150363 -3.030648,-0.362155 -3.019306,1.243218 0.0057,0.80028 0.456702,1.425257 1.2218,1.69294 0.333634,0.116727 0.533997,0.118676 0.954005,0.0093 z m 8.914936,-5.196458 0.572352,-0.0379 -0.03788,-0.150931 C 57.394764,11.077284 56.824095,9.9250628 56.510192,9.420111 55.222965,7.3494475 53.16688,5.7247317 50.903592,4.9897824 49.692673,4.5965647 48.828556,4.4573648 47.588669,4.4557843 c -3.501792,-0.00446 -6.730265,1.724185 -8.703106,4.6599776 -0.439049,0.6533514 -1.155013,2.0563031 -1.155013,2.2632811 0,0.122463 0.02248,0.125969 0.918033,0.143179 1.917304,0.03685 17.731195,0.04126 18.27727,0.0051 z"
     id="path852"
     inkscape:connector-curvature="0" />
  <path
     style="fill:#b4b4b4;fill-opacity:1;fill-rule:evenodd;stroke-width:1"
     id="path858"
     sodipodi:type="arc"
     sodipodi:cx="16.058292"
     sodipodi:cy="15.737704"
     sodipodi:rx="14.19308"
     sodipodi:ry="14.397087"
     sodipodi:start="0"
     sodipodi:end="6.2754535"
     d="M 30.251372,15.737704 A 14.19308,14.397087 0 0 1 16.085727,30.134764 14.19308,14.397087 0 0 1 1.8653185,15.793362 14.19308,14.397087 0 0 1 15.975989,1.3408592 14.19308,14.397087 0 0 1 30.250948,15.62639 l -14.192656,0.111314 z" />
  <ellipse
     style="fill:#b4b4b4;fill-opacity:1;fill-rule:evenodd"
     id="path1190"
     cx="29.17304"
     cy="15.591985"
     rx="1.0200365"
     ry="0.84517306" />
  <path
     style="opacity:1;fill:#898989;fill-opacity:1;fill-rule:nonzero;stroke:#898989;stroke-width:6.15199804;stroke-linecap:round;stroke-miterlimit:4;stroke-dasharray:none;stroke-dashoffset:0;stroke-opacity:1;paint-order:fill markers stroke"
     d="m 25.649194,36.422074 c 1.643274,-0.829358 3.285538,-1.658206 5.300818,-1.086065 2.01528,0.572142 4.40655,2.546383 7.07427,2.879827 2.66772,0.333443 5.611132,-0.973875 8.552863,-2.280446"
     id="path1146"
     inkscape:connector-curvature="0"
     inkscape:path-effect="#path-effect1148"
     inkscape:original-d="m 25.649194,36.422074 c 1.643101,-0.829701 3.285365,-1.658549 4.926792,-2.486544 2.389892,1.971911 4.781162,3.946152 7.172082,5.921299 2.943541,-1.308434 5.886953,-2.615752 8.829077,-3.921439"
     transform="matrix(0.72476615,0.64353724,-0.55661637,0.83794517,13.365815,-41.7294)"
     inkscape:transform-center-x="1.2506066"
     inkscape:transform-center-y="-1.8769891"
     sodipodi:nodetypes="cccc" />
  <path
     style="opacity:1;fill:#898989;fill-opacity:1;fill-rule:nonzero;stroke:#898989;stroke-width:5.96565342;stroke-linecap:round;stroke-miterlimit:4;stroke-dasharray:none;stroke-dashoffset:0;stroke-opacity:1;paint-order:fill markers stroke"
     d="m 25.649194,36.422074 c 1.643274,-0.829358 3.285538,-1.658206 5.300818,-1.086065 2.01528,0.572142 4.40655,2.546383 7.07427,2.879827 2.66772,0.333443 5.611132,-0.973875 8.552863,-2.280446"
     id="path1146-7"
     inkscape:connector-curvature="0"
     inkscape:path-effect="#path-effect1148-8"
     inkscape:original-d="m 25.649194,36.422074 c 1.643101,-0.829701 3.285365,-1.658549 4.926792,-2.486544 2.389892,1.971911 4.781162,3.946152 7.172082,5.921299 2.943541,-1.308434 5.886953,-2.615752 8.829077,-3.921439"
     transform="matrix(0.76089176,0.65187605,-0.58436064,0.84880307,7.0113299,-35.249198)"
     inkscape:transform-center-x="1.3129431"
     inkscape:transform-center-y="-1.9013109"
     sodipodi:nodetypes="cccc" />
</svg>
